PathFileType	4	(X/Y/Z)	Run_500 03
DataRate	CameraRate	NumFrames	NumMarkers	Units	OrigDataRate	OrigDataStartFrame	OrigNumFrames
100	100	7	42	mm	100	204	128
Frame#	Time	RASI			LPSI			RPSI			RTH1			RTH2			RTH3			LTH1			LTH2			LTH3			RTB1			RTB2			RTB3			LTB1			LTB2			LTB3			RCAL			RTOE			RMT5			LCAL			LTOE			LMT5			LACR			RACR			CLAV			C7			RUA1			RUA2			RUA3			RLEL			RMEL			LUA1			LUA2			LUA3			LLEL			LMEL			RFAsuperior			RFAradius			RFAulna			LFAsuperior			LFAradius			LFAulna			LASI		
		X1	Y1	Z1	X2	Y2	Z2	X3	Y3	Z3	X4	Y4	Z4	X5	Y5	Z5	X6	Y6	Z6	X7	Y7	Z7	X8	Y8	Z8	X9	Y9	Z9	X10	Y10	Z10	X11	Y11	Z11	X12	Y12	Z12	X13	Y13	Z13	X14	Y14	Z14	X15	Y15	Z15	X16	Y16	Z16	X17	Y17	Z17	X18	Y18	Z18	X19	Y19	Z19	X20	Y20	Z20	X21	Y21	Z21	X22	Y22	Z22	X23	Y23	Z23	X24	Y24	Z24	X25	Y25	Z25	X26	Y26	Z26	X27	Y27	Z27	X28	Y28	Z28	X29	Y29	Z29	X30	Y30	Z30	X31	Y31	Z31	X32	Y32	Z32	X33	Y33	Z33	X34	Y34	Z34	X35	Y35	Z35	X36	Y36	Z36	X37	Y37	Z37	X38	Y38	Z38	X39	Y39	Z39	X40	Y40	Z40	X41	Y41	Z41	X42	Y42	Z42	

204	  2.040000	740.413964	977.165194	-221.207669	548.060962	1066.007217	-373.460641	554.058479	1060.448657	-290.527276	708.300918	863.064874	-147.291960	827.085524	767.993454	-153.879419	808.222127	652.609484	-142.829635	647.671621	868.765818	-523.485956	725.757561	757.062202	-502.819606	651.339085	614.871515	-485.282465	741.927052	516.673225	-223.111992	640.223651	568.042548	-177.265885	547.118614	557.315874	-251.750547	678.212881	384.172345	-406.672936	595.444264	325.797250	-466.312829	578.616949	203.637274	-379.518998	429.864655	700.150773	-269.529806	391.165629	469.720515	-282.181241	360.946435	498.920913	-195.316838	397.599791	102.548889	-345.776293	630.641864	 67.225735	-377.132276	583.027823	 47.868027	-456.149602	730.873966	1475.223290	-553.174798	705.589835	1496.437018	-205.298921	788.474468	1451.993219	-346.313292	655.622515	1527.820021	-400.634539	635.634284	1403.348407	-117.238538	556.957798	1333.483419	-142.854920	583.748026	1302.646860	-76.498124	550.678880	1216.650102	-35.654462	521.029784	1197.539448	-107.272401	708.501176	1377.176301	-652.865552	656.225472	1286.611501	-658.361824	717.145934	1272.722070	-713.611874	743.798832	1195.372467	-752.925267	678.991441	1152.504675	-729.157987	571.639909	1138.994367	-16.547228	676.966865	961.799953	-47.643616	612.556887	948.680923	-20.776706	825.784621	1125.156977	-683.458789	884.279776	1096.975081	-540.325942	880.482893	1042.469847	-581.379058	735.740052	946.681846	-469.805161	
205	  2.050000	738.545431	985.058636	-220.615895	547.818224	1069.301183	-374.630871	553.406798	1065.535647	-291.626999	712.317167	870.367683	-148.511674	836.924598	785.752705	-157.210829	827.770950	669.783209	-147.979324	641.723732	870.314823	-523.446110	710.936839	752.645205	-503.240961	626.394322	616.655923	-484.962920	772.666943	525.538526	-228.178680	666.349244	564.908719	-180.480166	574.389725	545.565009	-254.768668	641.152772	384.216707	-408.263626	554.721069	330.654502	-467.168318	534.118321	208.234150	-381.621965	439.024952	672.334497	-268.060162	430.649664	438.855226	-282.042449	398.547234	463.234767	-194.557028	350.312014	113.293846	-348.461766	580.105547	 66.993442	-378.546650	531.749805	 47.505280	-456.606627	735.399567	1479.822022	-551.074299	703.501996	1500.298654	-204.776001	788.114224	1455.203067	-344.530835	655.912600	1531.266629	-400.765584	629.604970	1409.785935	-117.767964	550.570431	1341.252754	-146.551812	573.898188	1311.052081	-78.161127	537.881743	1226.321891	-36.790252	510.053931	1207.753093	-109.027507	718.532012	1380.096662	-650.285565	667.205109	1287.402728	-655.408824	729.571011	1273.955624	-708.098826	759.528439	1196.950985	-745.301547	697.846299	1151.333363	-721.117985	554.343676	1147.914671	-16.150676	650.689407	964.915487	-41.357444	584.474256	955.424798	-17.620007	845.026136	1135.124031	-672.516793	902.648790	1116.276808	-527.347252	904.461909	1060.069435	-566.607829	732.962373	952.794904	-469.025656	
206	  2.060000	736.842402	995.124901	-221.054480	549.291160	1074.316258	-376.484158	553.256122	1071.740921	-292.987497	717.183959	879.255695	-149.946617	845.224936	804.059023	-160.411575	844.012105	688.272630	-153.940075	636.755703	873.391791	-523.303275	695.935711	750.584652	-503.460740	601.619999	621.752840	-484.771654	801.340155	535.022459	-234.017073	691.445326	561.203973	-183.912953	602.307480	532.476959	-257.903784	603.710936	388.040341	-410.322133	513.681807	339.464935	-468.594999	490.832690	216.137526	-384.513206	450.134792	639.500170	-267.484259	473.250223	407.060389	-282.119844	439.463930	426.503629	-194.474004	304.946519	127.297183	-351.632760	529.799275	 66.741982	-379.332009	480.653243	 47.332177	-456.377124	739.834823	1486.698635	-548.337725	701.290118	1505.832998	-204.022222	787.867564	1460.287150	-342.300452	656.365120	1536.452488	-400.487917	623.947174	1418.211706	-117.881578	544.028647	1351.170639	-148.775121	564.614163	1321.533439	-78.942859	525.289796	1238.132500	-37.524261	498.828875	1220.369983	-110.226383	727.728193	1385.492872	-647.079621	677.176894	1291.856012	-652.939939	741.211762	1277.477669	-701.624832	772.993588	1200.470009	-736.890206	714.794216	1152.764037	-711.799997	537.451733	1159.243387	-15.971102	626.329028	972.702430	-36.195074	558.692851	965.686150	-16.174998	861.451852	1147.569889	-661.194186	918.543354	1139.353566	-514.854941	925.170642	1081.501283	-551.298625	730.313151	961.156323	-469.206371	
207	  2.070000	736.074300	1006.496126	-221.491215	551.941476	1080.405398	-378.539876	553.360533	1078.572960	-294.335535	721.467487	889.948728	-150.872430	852.843694	822.157048	-163.697305	857.118406	706.713795	-160.114398	633.140641	878.041137	-522.900869	682.152553	751.797808	-503.374325	578.179888	630.058324	-485.013812	827.786972	544.277120	-239.453751	715.548391	556.838614	-187.369268	630.670115	517.330514	-260.166969	567.027264	395.806751	-412.965547	474.226649	351.788477	-470.697245	450.241518	226.762092	-388.703749	464.480771	602.548673	-268.009444	519.420235	375.582292	-282.493942	483.977420	390.108807	-194.977751	262.918840	144.166819	-355.239688	479.910948	 66.603966	-379.616402	430.331613	 47.639890	-456.026305	743.711384	1495.477442	-545.466586	698.938781	1512.564717	-203.060913	787.584961	1467.131935	-339.794397	657.060151	1543.080438	-399.776962	618.588065	1428.003910	-117.700502	537.594715	1362.605225	-149.899769	555.851632	1333.509160	-78.990875	513.147962	1251.574715	-37.971436	487.485228	1234.771923	-110.996816	735.748615	1392.728365	-643.353050	686.300534	1298.720005	-650.586411	752.022724	1282.968946	-694.622555	784.895432	1205.898516	-728.426729	729.513366	1156.793786	-701.842191	521.541516	1172.419416	-16.035101	603.873868	983.041636	-33.288304	535.493076	978.559337	-15.962123	875.315707	1161.986949	-649.775220	931.484344	1165.076613	-502.976942	942.059224	1105.818018	-535.947476	728.559953	971.085749	-469.327793	
208	  2.080000	736.743487	1018.309582	-221.385105	555.005503	1086.776021	-380.221178	554.287078	1085.746378	-295.776628	724.781064	902.198159	-151.071957	859.549781	839.240583	-167.048090	867.344219	723.886587	-165.819207	630.817442	883.812961	-522.549974	670.248761	755.645346	-503.041821	556.424703	641.059206	-485.534948	852.094630	552.308244	-243.283625	738.816501	551.699112	-190.525370	659.499744	499.717756	-260.873402	532.318734	407.257729	-416.402871	437.408798	367.174647	-473.338957	413.867880	239.396440	-394.803201	483.000815	562.564441	-269.756310	569.045325	345.511806	-283.283727	531.716646	355.149312	-196.049819	226.147812	164.004788	-359.421790	431.078990	 66.572003	-379.754616	381.369305	 48.523013	-456.010603	746.892521	1505.468269	-542.571767	696.578590	1519.981981	-201.993281	787.183394	1475.361739	-337.166649	657.822192	1550.464863	-398.738515	613.379783	1438.442329	-117.587657	531.568425	1375.069364	-150.633129	547.652477	1346.506114	-78.635320	501.660330	1266.102524	-38.365682	476.333934	1250.429884	-111.640077	742.859559	1401.256516	-639.218596	694.893004	1307.018367	-647.970403	762.023714	1290.184583	-687.799943	795.778002	1213.137733	-720.548342	741.908219	1163.296273	-691.995257	507.015964	1186.811550	-16.374774	583.386186	994.693205	-32.555485	514.898398	993.078399	-16.361601	886.967076	1177.901827	-638.703312	941.207574	1192.297569	-491.905480	954.917776	1131.850406	-521.003864	728.286510	981.548003	-469.003223	
209	  2.090000	738.668829	1029.755145	-220.962991	558.038269	1093.022191	-381.437993	556.787162	1092.903324	-297.624487	727.648894	915.364687	-150.929708	864.396406	854.484282	-170.015964	874.820910	738.931046	-170.543161	629.243332	890.036360	-522.677907	659.760907	760.811795	-502.675070	536.277778	654.037745	-485.938618	874.508434	558.385011	-245.138781	761.448424	545.453320	-193.138145	689.249495	480.234536	-260.279239	500.800839	421.457927	-420.572338	403.885246	384.879844	-476.208772	382.550694	253.369672	-402.602730	506.269004	520.791036	-272.661818	621.358935	317.573181	-284.362608	581.806244	322.143513	-197.600556	196.260141	187.185332	-364.486794	384.649811	 66.704422	-380.256018	334.265105	 50.286551	-456.262376	749.554007	1515.771084	-539.275482	694.404533	1527.558399	-200.933441	786.632906	1484.285257	-334.508133	658.565829	1557.916875	-397.499891	608.348944	1449.041418	-117.848925	526.049301	1388.275064	-151.498315	540.156248	1360.046478	-78.240941	490.916508	1281.098667	-39.021186	465.778565	1266.752781	-112.564684	749.438601	1410.650976	-634.900884	703.001269	1316.229059	-644.895140	771.257131	1298.987565	-681.892421	805.885341	1221.908885	-713.634039	752.475667	1171.696239	-683.255649	493.875652	1201.778257	-17.023051	565.101994	1007.434514	-32.650059	496.822935	1008.290169	-16.677228	896.696131	1194.776862	-628.476044	947.706294	1219.846258	-481.955525	963.886900	1158.338463	-506.894059	729.396118	991.108682	-468.577323	
210	  2.100000	741.239668	1040.071371	-220.922799	561.000076	1099.236770	-382.753775	560.539809	1099.718558	-299.919536	730.655869	928.541509	-151.150010	867.067700	867.315203	-172.044535	879.601578	751.329401	-174.134710	627.670758	896.295554	-523.547485	649.747980	766.496056	-502.718453	517.945695	668.060876	-486.011626	895.192532	562.303489	-245.531626	783.632095	537.634361	-195.230612	720.420809	460.198343	-259.399525	473.490750	436.830125	-424.832639	374.610965	403.577548	-478.972489	355.821810	268.195837	-410.704671	534.366211	478.476766	-276.473891	675.227703	291.979451	-285.332526	633.395702	291.099069	-199.359988	173.161891	213.629285	-370.278161	341.788977	 67.853714	-381.927012	289.058385	 54.248941	-456.556152	751.937354	1525.586786	-535.297303	692.580811	1534.793193	-199.908663	785.971285	1492.989966	-331.870029	659.387104	1564.989445	-396.083828	603.750709	1459.644948	-118.481720	520.991400	1401.977822	-152.619768	533.411128	1373.514778	-78.098833	480.906829	1295.918376	-40.226713	456.197719	1282.931554	-114.113372	755.609412	1420.488159	-630.729539	710.322632	1326.031081	-641.621981	779.739443	1309.112864	-677.251217	815.264645	1231.765475	-707.916903	762.057526	1181.051551	-676.585624	481.847743	1216.717424	-17.995436	549.197391	1021.044003	-32.176061	481.144499	1023.328209	-16.277991	904.638812	1211.994187	-619.468349	951.190065	1246.494812	-473.431205	969.420306	1184.108334	-494.088083	731.182664	998.581148	-468.485836	
